<svg id="visual" viewBox="0 0 900 600" width="900" height="600" xmlns="http://www.w3.org/2000/svg" xmlns:xlink="http://www.w3.org/1999/xlink" version="1.1"><rect x="0" y="0" width="900" height="600" fill="#bfc6ea"></rect><defs><linearGradient id="grad1_0" x1="33.3%" y1="0%" x2="100%" y2="100%"><stop offset="20%" stop-color="#ffffff" stop-opacity="1"></stop><stop offset="80%" stop-color="#ffffff" stop-opacity="1"></stop></linearGradient></defs><defs><linearGradient id="grad1_1" x1="33.3%" y1="0%" x2="100%" y2="100%"><stop offset="20%" stop-color="#ffffff" stop-opacity="1"></stop><stop offset="80%" stop-color="#eaecf8" stop-opacity="1"></stop></linearGradient></defs><defs><linearGradient id="grad1_2" x1="33.3%" y1="0%" x2="100%" y2="100%"><stop offset="20%" stop-color="#d4d9f1" stop-opacity="1"></stop><stop offset="80%" stop-color="#eaecf8" stop-opacity="1"></stop></linearGradient></defs><defs><linearGradient id="grad1_3" x1="33.3%" y1="0%" x2="100%" y2="100%"><stop offset="20%" stop-color="#d4d9f1" stop-opacity="1"></stop><stop offset="80%" stop-color="#bfc6ea" stop-opacity="1"></stop></linearGradient></defs><defs><linearGradient id="grad2_0" x1="0%" y1="0%" x2="66.7%" y2="100%"><stop offset="20%" stop-color="#ffffff" stop-opacity="1"></stop><stop offset="80%" stop-color="#ffffff" stop-opacity="1"></stop></linearGradient></defs><defs><linearGradient id="grad2_1" x1="0%" y1="0%" x2="66.7%" y2="100%"><stop offset="20%" stop-color="#eaecf8" stop-opacity="1"></stop><stop offset="80%" stop-color="#ffffff" stop-opacity="1"></stop></linearGradient></defs><defs><linearGradient id="grad2_2" x1="0%" y1="0%" x2="66.7%" y2="100%"><stop offset="20%" stop-color="#eaecf8" stop-opacity="1"></stop><stop offset="80%" stop-color="#d4d9f1" stop-opacity="1"></stop></linearGradient></defs><defs><linearGradient id="grad2_3" x1="0%" y1="0%" x2="66.7%" y2="100%"><stop offset="20%" stop-color="#bfc6ea" stop-opacity="1"></stop><stop offset="80%" stop-color="#d4d9f1" stop-opacity="1"></stop></linearGradient></defs><g transform="translate(900, 0)"><path d="M0 540.8C-63.2 546.6 -126.4 552.3 -167.1 514.4C-207.9 476.4 -226.1 394.8 -249.8 343.8C-273.5 292.8 -302.5 272.4 -339.8 246.9C-377.1 221.3 -422.6 190.6 -457.5 148.6C-492.3 106.6 -516.6 53.3 -540.8 0L0 0Z" fill="#cacfee"></path><path d="M0 405.6C-47.4 409.9 -94.8 414.2 -125.3 385.8C-155.9 357.3 -169.6 296.1 -187.4 257.9C-205.1 219.6 -226.9 204.3 -254.8 185.2C-282.8 166 -316.9 143 -343.1 111.5C-369.3 80 -387.4 40 -405.6 0L0 0Z" fill="#dfe2f5"></path><path d="M0 270.4C-31.6 273.3 -63.2 276.1 -83.6 257.2C-103.9 238.2 -113.1 197.4 -124.9 171.9C-136.7 146.4 -151.3 136.2 -169.9 123.4C-188.5 110.7 -211.3 95.3 -228.7 74.3C-246.2 53.3 -258.3 26.7 -270.4 0L0 0Z" fill="#f4f5fc"></path><path d="M0 135.2C-15.8 136.6 -31.6 138.1 -41.8 128.6C-52 119.1 -56.5 98.7 -62.5 86C-68.4 73.2 -75.6 68.1 -84.9 61.7C-94.3 55.3 -105.6 47.7 -114.4 37.2C-123.1 26.7 -129.1 13.3 -135.2 0L0 0Z" fill="#ffffff"></path></g><g transform="translate(0, 600)"><path d="M0 -540.8C56.6 -536.8 113.2 -532.8 167.1 -514.4C221.1 -495.9 272.4 -463 299.8 -412.6C327.1 -362.2 330.4 -294.3 336.6 -244.5C342.7 -194.8 351.6 -163.2 386.1 -125.5C420.6 -87.7 480.7 -43.9 540.8 0L0 0Z" fill="#cacfee"></path><path d="M0 -405.6C42.4 -402.6 84.9 -399.6 125.3 -385.8C165.8 -371.9 204.3 -347.3 224.8 -309.4C245.3 -271.6 247.8 -220.7 252.4 -183.4C257 -146.1 263.7 -122.4 289.6 -94.1C315.5 -65.8 360.6 -32.9 405.6 0L0 0Z" fill="#dfe2f5"></path><path d="M0 -270.4C28.3 -268.4 56.6 -266.4 83.6 -257.2C110.5 -248 136.2 -231.5 149.9 -206.3C163.6 -181.1 165.2 -147.1 168.3 -122.3C171.3 -97.4 175.8 -81.6 193.1 -62.7C210.3 -43.9 240.4 -21.9 270.4 0L0 0Z" fill="#f4f5fc"></path><path d="M0 -135.2C14.1 -134.2 28.3 -133.2 41.8 -128.6C55.3 -124 68.1 -115.8 74.9 -103.1C81.8 -90.5 82.6 -73.6 84.1 -61.1C85.7 -48.7 87.9 -40.8 96.5 -31.4C105.2 -21.9 120.2 -11 135.2 0L0 0Z" fill="#ffffff"></path></g></svg>