<?xml version="1.0" encoding="UTF-8" standalone="no"?>
<!-- Created with Inkscape (http://www.inkscape.org/) -->

<svg
   width="120mm"
   height="120mm"
   viewBox="0 0 453.54332 453.54332"
   version="1.1"
   id="svg1"
   sodipodi:docname="logo.svg"
   inkscape:version="1.4 (86a8ad7, 2024-10-11)"
   xmlns:inkscape="http://www.inkscape.org/namespaces/inkscape"
   xmlns:sodipodi="http://sodipodi.sourceforge.net/DTD/sodipodi-0.dtd"
   xmlns="http://www.w3.org/2000/svg"
   xmlns:svg="http://www.w3.org/2000/svg">
  <sodipodi:namedview
     id="namedview1"
     pagecolor="#505050"
     bordercolor="#eeeeee"
     borderopacity="1"
     inkscape:showpageshadow="0"
     inkscape:pageopacity="0"
     inkscape:pagecheckerboard="0"
     inkscape:deskcolor="#505050"
     inkscape:document-units="mm"
     inkscape:zoom="1.8857405"
     inkscape:cx="294.04894"
     inkscape:cy="220.86814"
     inkscape:window-width="1920"
     inkscape:window-height="1111"
     inkscape:window-x="-9"
     inkscape:window-y="-9"
     inkscape:window-maximized="1"
     inkscape:current-layer="svg1" />
  <defs
     id="defs1" />
  <g
     id="layer1"
     transform="translate(-219.46961,-136.77057)">
    <path
       style="fill:#3f51b5;fill-opacity:1;stroke-width:0.726499"
       d="m 419.29256,236.19326 c -21.47895,14.93894 -45.73754,48.6525 -61.65732,80.34757 -15.91978,31.69507 -23.50043,61.37049 -27.41719,88.1195 -3.91675,26.74901 -4.16944,50.57009 -2.40055,72.77683 1.7689,22.20673 5.55923,42.79783 8.59157,42.49481 3.03235,-0.30303 5.30655,-21.49975 9.22335,-44.31216 3.91681,-22.81241 9.47596,-47.2391 19.07846,-73.48347 9.60249,-26.24436 23.24767,-54.30478 42.83168,-83.4764 19.58401,-29.17161 45.10556,-59.45263 48.51673,-76.51133 3.41119,-17.05869 -15.28777,-20.89429 -36.76673,-5.95535 z"
       id="path2" />
    <path
       style="fill:#3f51b5;fill-opacity:1;stroke-width:0.765285"
       d="m 554.55193,291.11284 c -16.09572,-1.0524 -42.47818,9.00389 -61.84157,28.76599 -19.3634,19.76209 -31.70725,49.2288 -30.61792,79.63188 1.08933,30.40309 15.6115,61.7407 44.4148,77.52676 28.80331,15.78605 71.88573,16.01991 101.41489,1.4029 29.52915,-14.61701 45.50354,-44.08372 43.80905,-75.07148 -1.69447,-30.98776 -21.05736,-63.49469 -26.14013,-63.02661 -5.08277,0.46806 4.1146,33.91044 2.29917,59.40216 -1.81544,25.49174 -14.64335,43.03144 -34.73302,50.98292 -20.08967,7.95148 -47.43976,6.31444 -65.22985,-5.96383 -17.79009,-12.27827 -26.01932,-35.19683 -25.2931,-55.77735 0.72622,-20.58051 10.40767,-38.82181 25.17236,-50.51523 14.76469,-11.69343 34.61166,-16.83841 41.63079,-25.49163 7.01913,-8.65321 1.21026,-20.81408 -14.88547,-21.86648 z"
       id="path3" />
    <path
       id="path4"
       style="fill:#3f51b5;stroke-width:0.765285"
       d="m 575.83242,391.2081 a 11.617965,10.874837 0 0 1 -11.61796,10.87484 11.617965,10.874837 0 0 1 -11.61796,-10.87484 11.617965,10.874837 0 0 1 11.61796,-10.87483 11.617965,10.874837 0 0 1 11.61796,10.87483 z" />
    <path
       style="fill:#3f51b5;fill-opacity:1;stroke-width:1.06199"
       d="m 571.95686,376.6405 c -1.5935,-0.57718 1.9476,-10.50478 6.55107,-21.0674 4.60348,-10.56261 10.2691,-21.75979 15.81686,-25.9155 5.54776,-4.15571 10.97733,-1.26984 9.73786,4.90615 -1.23946,6.17598 -9.14773,15.64164 -16.46604,24.76127 -7.31832,9.11962 -14.04626,17.89266 -15.63975,17.31548 z"
       id="path5" />
    <path
       style="fill:#3f51b5;fill-opacity:1;stroke-width:0.802352"
       d="m 573.35044,409.722 c -0.2822,-2.89397 1.50504,-4.96108 3.90372,-3.43137 2.39867,1.52972 5.40869,6.65607 8.32472,10.74899 2.91604,4.09292 5.73792,7.15219 4.51502,7.4829 -1.22289,0.33071 -6.4904,-2.06709 -10.30005,-5.12646 -3.80965,-3.05937 -6.16121,-6.7801 -6.44341,-9.67406 z"
       id="path6" />
    <path
       style="fill:#3f51b5;fill-opacity:1;stroke-width:0.726499"
       d="m 259.37902,360.87843 c 9.67016,-3.10523 29.01009,-9.31555 53.94436,-13.76622 24.93429,-4.45066 55.46033,-7.14127 84.22381,-9.54802 28.76348,-2.40675 55.76098,-4.52934 65.02426,-0.72292 9.26327,3.80643 0.79125,13.54143 -4.09022,22.08838 -4.88148,8.54693 -6.17183,15.90476 -6.9321,22.8719 -0.76027,6.96712 -0.99036,13.54272 -14.20996,13.39811 -13.2196,-0.14461 -39.42763,-7.00954 -65.48658,-10.72758 -26.05894,-3.71803 -51.96723,-4.28902 -78.76972,-3.36113 -26.80247,0.9279 -54.49754,3.35458 -61.87537,0.74977 -7.37783,-2.6048 5.56162,-10.24085 12.03148,-14.05895 6.46985,-3.81811 6.46988,-3.81811 16.14004,-6.92334 z"
       id="path7" />
  </g>
</svg>
